<svg xmlns="http://www.w3.org/2000/svg" width="84" height="42" viewBox="0 0 84 42" fill="none"><path d="M0 21C0 9.7046 9.15675 0.547852 20.4522 0.547852H63.5478C74.8432 0.547852 84 9.7046 84 21C84 32.2954 74.8433 41.4522 63.5478 41.4522H20.4522C9.15675 41.4522 0 32.2954 0 21Z" fill="#36474B" fill-opacity="0.64" style="fill:#36474B;fill:color(display-p3 0.2108 0.2803 0.2942);fill-opacity:0.64;"></path><path d="M20.4521 1.29785H63.5479C74.429 1.29786 83.25 10.1188 83.25 21C83.25 31.8812 74.4291 40.7021 63.5479 40.7021H20.4521C9.57095 40.7021 0.75 31.8812 0.75 21C0.750013 10.1188 9.57096 1.29786 20.4521 1.29785Z" stroke="url(#paint0_linear_0_166)" stroke-opacity="0.16" style="" stroke-width="1.5"></path><path d="M44 11.2695V15.4001C44 15.9601 44 16.2401 44.109 16.4541C44.2049 16.6422 44.3578 16.7952 44.546 16.8911C44.7599 17.0001 45.0399 17.0001 45.6 17.0001H49.7305M44 26H38M46 22H38M50 18.9882V26.2C50 27.8802 50 28.7202 49.673 29.362C49.3854 29.9265 48.9265 30.3854 48.362 30.673C47.7202 31 46.8802 31 45.2 31H38.8C37.1198 31 36.2798 31 35.638 30.673C35.0735 30.3854 34.6146 29.9265 34.327 29.362C34 28.7202 34 27.8802 34 26.2V15.8C34 14.1198 34 13.2798 34.327 12.638C34.6146 12.0735 35.0735 11.6146 35.638 11.327C36.2798 11 37.1198 11 38.8 11H42.0118C42.7455 11 43.1124 11 43.4577 11.0829C43.7638 11.1564 44.0564 11.2776 44.3249 11.4421C44.6276 11.6276 44.887 11.887 45.4059 12.4059L48.5941 15.5941C49.113 16.113 49.3724 16.3724 49.5579 16.6751C49.7224 16.9436 49.8436 17.2362 49.9171 17.5423C50 17.8876 50 18.2545 50 18.9882Z" stroke="#EED7A4" style="stroke:#EED7A4;stroke:color(display-p3 0.9333 0.8431 0.6431);stroke-opacity:1;" stroke-width="1.59528" stroke-linecap="round" stroke-linejoin="round"></path><defs><linearGradient id="paint0_linear_0_166" x1="1.79929e-09" y1="8.3806" x2="85.9625" y2="16.7671" gradientUnits="userSpaceOnUse"><stop stop-color="white" style="stop-color:white;stop-opacity:1;"></stop><stop offset="1" stop-color="white" stop-opacity="0.42" style="stop-color:white;stop-opacity:0.42;"></stop></linearGradient></defs></svg>