<svg xmlns="http://www.w3.org/2000/svg" width="84" height="42" viewBox="0 0 84 42" fill="none"><path d="M0 21C0 9.7046 9.15675 0.547852 20.4522 0.547852H63.5478C74.8432 0.547852 84 9.7046 84 21C84 32.2954 74.8433 41.4522 63.5478 41.4522H20.4522C9.15675 41.4522 0 32.2954 0 21Z" fill="#36474B" fill-opacity="0.64" style="fill:#36474B;fill:color(display-p3 0.2108 0.2803 0.2942);fill-opacity:0.64;"></path><path d="M20.4521 1.29785H63.5479C74.429 1.29786 83.25 10.1188 83.25 21C83.25 31.8812 74.4291 40.7021 63.5479 40.7021H20.4521C9.57095 40.7021 0.75 31.8812 0.75 21C0.750013 10.1188 9.57096 1.29786 20.4521 1.29785Z" stroke="url(#paint0_linear_0_427)" stroke-opacity="0.16" style="" stroke-width="1.5"></path><path d="M42 23.9998L39 20.9998M42 23.9998C43.3968 23.4685 44.7369 22.7985 46 21.9998M42 23.9998V28.9998C42 28.9998 45.03 28.4498 46 26.9998C47.08 25.3798 46 21.9998 46 21.9998M39 20.9998C39.5321 19.6192 40.2022 18.2958 41 17.0498C42.1652 15.1867 43.7876 13.6528 45.713 12.5939C47.6384 11.5349 49.8027 10.9861 52 10.9998C52 13.7198 51.22 18.4998 46 21.9998M39 20.9998H34C34 20.9998 34.55 17.9698 36 16.9998C37.62 15.9198 41 16.9998 41 16.9998M34.5 25.4998C33 26.7598 32.5 30.4998 32.5 30.4998C32.5 30.4998 36.24 29.9998 37.5 28.4998C38.21 27.6598 38.2 26.3698 37.41 25.5898C37.0213 25.2188 36.5093 25.0044 35.9722 24.9878C35.4352 24.9712 34.9109 25.1535 34.5 25.4998Z" stroke="#EED7A4" style="stroke:#EED7A4;stroke:color(display-p3 0.9333 0.8431 0.6431);stroke-opacity:1;" stroke-width="1.59528" stroke-linecap="round" stroke-linejoin="round"></path><defs><linearGradient id="paint0_linear_0_427" x1="1.79929e-09" y1="8.3806" x2="85.9625" y2="16.7671" gradientUnits="userSpaceOnUse"><stop stop-color="white" style="stop-color:white;stop-opacity:1;"></stop><stop offset="1" stop-color="white" stop-opacity="0.42" style="stop-color:white;stop-opacity:0.42;"></stop></linearGradient></defs></svg>