<svg xmlns="http://www.w3.org/2000/svg" width="84" height="42" viewBox="0 0 84 42" fill="none"><path d="M0 21C0 9.7046 9.15675 0.547852 20.4522 0.547852H63.5478C74.8432 0.547852 84 9.7046 84 21C84 32.2954 74.8433 41.4522 63.5478 41.4522H20.4522C9.15675 41.4522 0 32.2954 0 21Z" fill="#36474B" fill-opacity="0.64" style="fill:#36474B;fill:color(display-p3 0.2108 0.2803 0.2942);fill-opacity:0.64;"></path><path d="M20.4521 1.29785H63.5479C74.429 1.29786 83.25 10.1188 83.25 21C83.25 31.8812 74.4291 40.7021 63.5479 40.7021H20.4521C9.57095 40.7021 0.75 31.8812 0.75 21C0.750013 10.1188 9.57096 1.29786 20.4521 1.29785Z" stroke="url(#paint0_linear_0_430)" stroke-opacity="0.16" style="" stroke-width="1.5"></path><path d="M33.3859 14.6669C32.6296 13.8215 32.2514 13.3989 32.2371 13.0397C32.2247 12.7276 32.3588 12.4277 32.5996 12.2289C32.8768 12 33.444 12 34.5783 12H49.4212C50.5555 12 51.1227 12 51.3999 12.2289C51.6407 12.4277 51.7748 12.7276 51.7624 13.0397C51.7481 13.3989 51.3699 13.8215 50.6136 14.6669L44.9074 21.0444C44.7566 21.2129 44.6812 21.2972 44.6275 21.3931C44.5798 21.4781 44.5448 21.5697 44.5236 21.6648C44.4997 21.7721 44.4997 21.8852 44.4997 22.1113V27.4584C44.4997 27.6539 44.4997 27.7517 44.4682 27.8363C44.4403 27.911 44.395 27.9779 44.336 28.0315C44.2692 28.0922 44.1784 28.1285 43.9969 28.2012L40.5969 29.5612C40.2293 29.7082 40.0455 29.7817 39.898 29.751C39.769 29.7242 39.6558 29.6476 39.583 29.5377C39.4997 29.4122 39.4997 29.2142 39.4997 28.8184V22.1113C39.4997 21.8852 39.4997 21.7721 39.4759 21.6648C39.4547 21.5697 39.4197 21.4781 39.372 21.3931C39.3183 21.2972 39.2429 21.2129 39.0921 21.0444L33.3859 14.6669Z" stroke="#EED7A4" style="stroke:#EED7A4;stroke:color(display-p3 0.9333 0.8431 0.6431);stroke-opacity:1;" stroke-width="1.59528" stroke-linecap="round" stroke-linejoin="round"></path><defs><linearGradient id="paint0_linear_0_430" x1="1.79929e-09" y1="8.3806" x2="85.9625" y2="16.7671" gradientUnits="userSpaceOnUse"><stop stop-color="white" style="stop-color:white;stop-opacity:1;"></stop><stop offset="1" stop-color="white" stop-opacity="0.42" style="stop-color:white;stop-opacity:0.42;"></stop></linearGradient></defs></svg>