<svg xmlns="http://www.w3.org/2000/svg" width="84" height="42" viewBox="0 0 84 42" fill="none"><path d="M0 21.1468C0 9.85133 9.15675 0.69458 20.4522 0.69458H63.5478C74.8432 0.69458 84 9.85133 84 21.1468C84 32.4422 74.8433 41.5989 63.5478 41.5989H20.4522C9.15675 41.5989 0 32.4422 0 21.1468Z" fill="white" style="fill:white;fill-opacity:1;"></path><path d="M20.4521 1.44458H63.5479C74.429 1.44459 83.25 10.2655 83.25 21.1467C83.25 32.0279 74.4291 40.8489 63.5479 40.8489H20.4521C9.57095 40.8489 0.75 32.0279 0.75 21.1467C0.750013 10.2655 9.57096 1.44459 20.4521 1.44458Z" stroke="#7C848C" stroke-opacity="0.12" style="stroke:#7C848C;stroke:color(display-p3 0.4863 0.5176 0.5490);stroke-opacity:0.12;" stroke-width="1.5"></path><path d="M42 24.1467L39 21.1467M42 24.1467C43.3968 23.6155 44.7369 22.9455 46 22.1467M42 24.1467V29.1467C42 29.1467 45.03 28.5967 46 27.1467C47.08 25.5267 46 22.1467 46 22.1467M39 21.1467C39.5321 19.7662 40.2022 18.4428 41 17.1967C42.1652 15.3337 43.7876 13.7998 45.713 12.7408C47.6384 11.6819 49.8027 11.1331 52 11.1467C52 13.8667 51.22 18.6467 46 22.1467M39 21.1467H34C34 21.1467 34.55 18.1167 36 17.1467C37.62 16.0667 41 17.1467 41 17.1467M34.5 25.6467C33 26.9067 32.5 30.6467 32.5 30.6467C32.5 30.6467 36.24 30.1467 37.5 28.6467C38.21 27.8067 38.2 26.5167 37.41 25.7367C37.0213 25.3657 36.5093 25.1514 35.9722 25.1348C35.4352 25.1181 34.9109 25.3005 34.5 25.6467Z" stroke="#7C848C" style="stroke:#7C848C;stroke:color(display-p3 0.4863 0.5176 0.5490);stroke-opacity:1;" stroke-width="1.59528" stroke-linecap="round" stroke-linejoin="round"></path></svg>