<svg xmlns="http://www.w3.org/2000/svg" width="84" height="42" viewBox="0 0 84 42" fill="none"><path d="M0 21.1468C0 9.85133 9.15675 0.69458 20.4522 0.69458H63.5478C74.8432 0.69458 84 9.85133 84 21.1468C84 32.4422 74.8433 41.5989 63.5478 41.5989H20.4522C9.15675 41.5989 0 32.4422 0 21.1468Z" fill="white" style="fill:white;fill-opacity:1;"></path><path d="M20.4521 1.44458H63.5479C74.429 1.44459 83.25 10.2655 83.25 21.1467C83.25 32.0279 74.4291 40.8489 63.5479 40.8489H20.4521C9.57095 40.8489 0.75 32.0279 0.75 21.1467C0.750013 10.2655 9.57096 1.44459 20.4521 1.44458Z" stroke="#7C848C" stroke-opacity="0.12" style="stroke:#7C848C;stroke:color(display-p3 0.4863 0.5176 0.5490);stroke-opacity:0.12;" stroke-width="1.5"></path><path d="M33.3859 14.8136C32.6296 13.9683 32.2514 13.5456 32.2371 13.1864C32.2247 12.8744 32.3588 12.5744 32.5996 12.3756C32.8768 12.1467 33.444 12.1467 34.5783 12.1467H49.4212C50.5555 12.1467 51.1227 12.1467 51.3999 12.3756C51.6407 12.5744 51.7748 12.8744 51.7624 13.1864C51.7481 13.5456 51.3699 13.9683 50.6136 14.8136L44.9074 21.1912C44.7566 21.3597 44.6812 21.4439 44.6275 21.5398C44.5798 21.6248 44.5448 21.7164 44.5236 21.8116C44.4997 21.9189 44.4997 22.0319 44.4997 22.258V27.6051C44.4997 27.8007 44.4997 27.8984 44.4682 27.983C44.4403 28.0577 44.395 28.1246 44.336 28.1783C44.2692 28.2389 44.1784 28.2753 43.9969 28.3479L40.5969 29.7079C40.2293 29.8549 40.0455 29.9284 39.898 29.8978C39.769 29.8709 39.6558 29.7943 39.583 29.6845C39.4997 29.5589 39.4997 29.361 39.4997 28.9651V22.258C39.4997 22.0319 39.4997 21.9189 39.4759 21.8116C39.4547 21.7164 39.4197 21.6248 39.372 21.5398C39.3183 21.4439 39.2429 21.3597 39.0921 21.1912L33.3859 14.8136Z" stroke="#7C848C" style="stroke:#7C848C;stroke:color(display-p3 0.4863 0.5176 0.5490);stroke-opacity:1;" stroke-width="1.59528" stroke-linecap="round" stroke-linejoin="round"></path></svg>