<svg xmlns="http://www.w3.org/2000/svg" width="84" height="42" viewBox="0 0 84 42" fill="none"><path d="M0 21.1468C0 9.85133 9.15675 0.69458 20.4522 0.69458H63.5478C74.8432 0.69458 84 9.85133 84 21.1468C84 32.4422 74.8433 41.5989 63.5478 41.5989H20.4522C9.15675 41.5989 0 32.4422 0 21.1468Z" fill="white" style="fill:white;fill-opacity:1;"></path><path d="M20.4521 1.44458H63.5479C74.429 1.44459 83.25 10.2655 83.25 21.1467C83.25 32.0279 74.4291 40.8489 63.5479 40.8489H20.4521C9.57095 40.8489 0.75 32.0279 0.75 21.1467C0.750013 10.2655 9.57096 1.44459 20.4521 1.44458Z" stroke="#7C848C" stroke-opacity="0.12" style="stroke:#7C848C;stroke:color(display-p3 0.4863 0.5176 0.5490);stroke-opacity:0.12;" stroke-width="1.5"></path><path d="M47 19.1467V17.1467C47 14.3853 44.7614 12.1467 42 12.1467C39.2386 12.1467 37 14.3853 37 17.1467V19.1467M42 23.6467V25.6467M38.8 30.1467H45.2C46.8802 30.1467 47.7202 30.1467 48.362 29.8197C48.9265 29.5321 49.3854 29.0732 49.673 28.5087C50 27.867 50 27.0269 50 25.3467V23.9467C50 22.2666 50 21.4265 49.673 20.7848C49.3854 20.2203 48.9265 19.7613 48.362 19.4737C47.7202 19.1467 46.8802 19.1467 45.2 19.1467H38.8C37.1198 19.1467 36.2798 19.1467 35.638 19.4737C35.0735 19.7613 34.6146 20.2203 34.327 20.7848C34 21.4265 34 22.2666 34 23.9467V25.3467C34 27.0269 34 27.867 34.327 28.5087C34.6146 29.0732 35.0735 29.5321 35.638 29.8197C36.2798 30.1467 37.1198 30.1467 38.8 30.1467Z" stroke="#7C848C" style="stroke:#7C848C;stroke:color(display-p3 0.4863 0.5176 0.5490);stroke-opacity:1;" stroke-width="1.59528" stroke-linecap="round" stroke-linejoin="round"></path></svg>