<svg xmlns="http://www.w3.org/2000/svg" width="84" height="42" viewBox="0 0 84 42" fill="none"><path d="M0 21.1468C0 9.85133 9.15675 0.69458 20.4522 0.69458H63.5478C74.8432 0.69458 84 9.85133 84 21.1468C84 32.4422 74.8433 41.5989 63.5478 41.5989H20.4522C9.15675 41.5989 0 32.4422 0 21.1468Z" fill="white" style="fill:white;fill-opacity:1;"></path><path d="M20.4521 1.44458H63.5479C74.429 1.44459 83.25 10.2655 83.25 21.1467C83.25 32.0279 74.4291 40.8489 63.5479 40.8489H20.4521C9.57095 40.8489 0.75 32.0279 0.75 21.1467C0.750013 10.2655 9.57096 1.44459 20.4521 1.44458Z" stroke="#7C848C" stroke-opacity="0.12" style="stroke:#7C848C;stroke:color(display-p3 0.4863 0.5176 0.5490);stroke-opacity:0.12;" stroke-width="1.5"></path><path d="M44 11.4163V15.5468C44 16.1069 44 16.3869 44.109 16.6008C44.2049 16.789 44.3578 16.9419 44.546 17.0378C44.7599 17.1468 45.0399 17.1468 45.6 17.1468H49.7305M44 26.1467H38M46 22.1467H38M50 19.135V26.3467C50 28.0269 50 28.867 49.673 29.5087C49.3854 30.0732 48.9265 30.5321 48.362 30.8197C47.7202 31.1467 46.8802 31.1467 45.2 31.1467H38.8C37.1198 31.1467 36.2798 31.1467 35.638 30.8197C35.0735 30.5321 34.6146 30.0732 34.327 29.5087C34 28.867 34 28.0269 34 26.3467V15.9467C34 14.2666 34 13.4265 34.327 12.7848C34.6146 12.2203 35.0735 11.7613 35.638 11.4737C36.2798 11.1467 37.1198 11.1467 38.8 11.1467H42.0118C42.7455 11.1467 43.1124 11.1467 43.4577 11.2296C43.7638 11.3031 44.0564 11.4243 44.3249 11.5888C44.6276 11.7743 44.887 12.0338 45.4059 12.5526L48.5941 15.7408C49.113 16.2597 49.3724 16.5191 49.5579 16.8219C49.7224 17.0903 49.8436 17.3829 49.9171 17.689C50 18.0343 50 18.4012 50 19.135Z" stroke="#7C848C" style="stroke:#7C848C;stroke:color(display-p3 0.4863 0.5176 0.5490);stroke-opacity:1;" stroke-width="1.59528" stroke-linecap="round" stroke-linejoin="round"></path></svg>