<svg width="233" height="35" viewBox="0 0 233 35" fill="none" xmlns="http://www.w3.org/2000/svg">
<path d="M20.996 21.5V13.1H22.94V21.5H20.996ZM33.0695 14.948C33.5815 14.948 34.0335 15.052 34.4255 15.26C34.8255 15.46 35.1375 15.772 35.3615 16.196C35.5935 16.612 35.7095 17.148 35.7095 17.804V21.5H33.8375V18.092C33.8375 17.572 33.7295 17.188 33.5135 16.94C33.2975 16.692 32.9935 16.568 32.6015 16.568C32.3295 16.568 32.0855 16.632 31.8695 16.76C31.6535 16.88 31.4855 17.064 31.3655 17.312C31.2455 17.56 31.1855 17.876 31.1855 18.26V21.5H29.3135V18.092C29.3135 17.572 29.2055 17.188 28.9895 16.94C28.7815 16.692 28.4815 16.568 28.0895 16.568C27.8175 16.568 27.5735 16.632 27.3575 16.76C27.1415 16.88 26.9735 17.064 26.8535 17.312C26.7335 17.56 26.6735 17.876 26.6735 18.26V21.5H24.8015V15.044H26.5895V16.808L26.2535 16.292C26.4775 15.852 26.7935 15.52 27.2015 15.296C27.6175 15.064 28.0895 14.948 28.6175 14.948C29.2095 14.948 29.7255 15.1 30.1655 15.404C30.6135 15.7 30.9095 16.156 31.0535 16.772L30.3935 16.592C30.6095 16.088 30.9535 15.688 31.4255 15.392C31.9055 15.096 32.4535 14.948 33.0695 14.948ZM40.6383 21.596C39.9023 21.596 39.2543 21.452 38.6943 21.164C38.1423 20.876 37.7143 20.484 37.4103 19.988C37.1063 19.484 36.9543 18.912 36.9543 18.272C36.9543 17.624 37.1023 17.052 37.3983 16.556C37.7023 16.052 38.1143 15.66 38.6343 15.38C39.1543 15.092 39.7423 14.948 40.3983 14.948C41.0303 14.948 41.5983 15.084 42.1023 15.356C42.6143 15.62 43.0183 16.004 43.3143 16.508C43.6103 17.004 43.7583 17.6 43.7583 18.296C43.7583 18.368 43.7543 18.452 43.7463 18.548C43.7383 18.636 43.7303 18.72 43.7223 18.8H38.4783V17.708H42.7383L42.0183 18.032C42.0183 17.696 41.9503 17.404 41.8143 17.156C41.6783 16.908 41.4903 16.716 41.2503 16.58C41.0103 16.436 40.7303 16.364 40.4103 16.364C40.0903 16.364 39.8063 16.436 39.5583 16.58C39.3183 16.716 39.1303 16.912 38.9943 17.168C38.8583 17.416 38.7903 17.712 38.7903 18.056V18.344C38.7903 18.696 38.8663 19.008 39.0183 19.28C39.1783 19.544 39.3983 19.748 39.6783 19.892C39.9663 20.028 40.3023 20.096 40.6863 20.096C41.0303 20.096 41.3303 20.044 41.5863 19.94C41.8503 19.836 42.0903 19.68 42.3063 19.472L43.3023 20.552C43.0063 20.888 42.6343 21.148 42.1863 21.332C41.7383 21.508 41.2223 21.596 40.6383 21.596ZM45.0046 21.5V15.044H46.7926V16.868L46.5406 16.34C46.7326 15.884 47.0406 15.54 47.4646 15.308C47.8886 15.068 48.4046 14.948 49.0126 14.948V16.676C48.9326 16.668 48.8606 16.664 48.7966 16.664C48.7326 16.656 48.6646 16.652 48.5926 16.652C48.0806 16.652 47.6646 16.8 47.3446 17.096C47.0326 17.384 46.8766 17.836 46.8766 18.452V21.5H45.0046ZM52.3446 21.596C51.7926 21.596 51.2606 21.532 50.7486 21.404C50.2446 21.268 49.8446 21.1 49.5486 20.9L50.1726 19.556C50.4686 19.74 50.8166 19.892 51.2166 20.012C51.6246 20.124 52.0246 20.18 52.4166 20.18C52.8486 20.18 53.1526 20.128 53.3286 20.024C53.5126 19.92 53.6046 19.776 53.6046 19.592C53.6046 19.44 53.5326 19.328 53.3886 19.256C53.2526 19.176 53.0686 19.116 52.8366 19.076C52.6046 19.036 52.3486 18.996 52.0686 18.956C51.7966 18.916 51.5206 18.864 51.2406 18.8C50.9606 18.728 50.7046 18.624 50.4726 18.488C50.2406 18.352 50.0526 18.168 49.9086 17.936C49.7726 17.704 49.7046 17.404 49.7046 17.036C49.7046 16.628 49.8206 16.268 50.0526 15.956C50.2926 15.644 50.6366 15.4 51.0846 15.224C51.5326 15.04 52.0686 14.948 52.6926 14.948C53.1326 14.948 53.5806 14.996 54.0366 15.092C54.4926 15.188 54.8726 15.328 55.1766 15.512L54.5526 16.844C54.2406 16.66 53.9246 16.536 53.6046 16.472C53.2926 16.4 52.9886 16.364 52.6926 16.364C52.2766 16.364 51.9726 16.42 51.7806 16.532C51.5886 16.644 51.4926 16.788 51.4926 16.964C51.4926 17.124 51.5606 17.244 51.6966 17.324C51.8406 17.404 52.0286 17.468 52.2606 17.516C52.4926 17.564 52.7446 17.608 53.0166 17.648C53.2966 17.68 53.5766 17.732 53.8566 17.804C54.1366 17.876 54.3886 17.98 54.6126 18.116C54.8446 18.244 55.0326 18.424 55.1766 18.656C55.3206 18.88 55.3926 19.176 55.3926 19.544C55.3926 19.944 55.2726 20.3 55.0326 20.612C54.7926 20.916 54.4446 21.156 53.9886 21.332C53.5406 21.508 52.9926 21.596 52.3446 21.596ZM60.5076 21.5V20.24L60.3876 19.964V17.708C60.3876 17.308 60.2636 16.996 60.0156 16.772C59.7756 16.548 59.4036 16.436 58.8996 16.436C58.5556 16.436 58.2156 16.492 57.8796 16.604C57.5516 16.708 57.2716 16.852 57.0396 17.036L56.3676 15.728C56.7196 15.48 57.1436 15.288 57.6396 15.152C58.1356 15.016 58.6396 14.948 59.1516 14.948C60.1356 14.948 60.8996 15.18 61.4436 15.644C61.9876 16.108 62.2596 16.832 62.2596 17.816V21.5H60.5076ZM58.5396 21.596C58.0356 21.596 57.6036 21.512 57.2436 21.344C56.8836 21.168 56.6076 20.932 56.4156 20.636C56.2236 20.34 56.1276 20.008 56.1276 19.64C56.1276 19.256 56.2196 18.92 56.4036 18.632C56.5956 18.344 56.8956 18.12 57.3036 17.96C57.7116 17.792 58.2436 17.708 58.8996 17.708H60.6156V18.8H59.1036C58.6636 18.8 58.3596 18.872 58.1916 19.016C58.0316 19.16 57.9516 19.34 57.9516 19.556C57.9516 19.796 58.0436 19.988 58.2276 20.132C58.4196 20.268 58.6796 20.336 59.0076 20.336C59.3196 20.336 59.5996 20.264 59.8476 20.12C60.0956 19.968 60.2756 19.748 60.3876 19.46L60.6756 20.324C60.5396 20.74 60.2916 21.056 59.9316 21.272C59.5716 21.488 59.1076 21.596 58.5396 21.596ZM60.2436 14.252C60.0356 14.252 59.8516 14.216 59.6916 14.144C59.5316 14.064 59.3876 13.976 59.2596 13.88C59.1316 13.776 59.0116 13.688 58.8996 13.616C58.7876 13.536 58.6756 13.496 58.5636 13.496C58.4036 13.496 58.2716 13.556 58.1676 13.676C58.0636 13.788 58.0036 13.952 57.9876 14.168H57.0396C57.0556 13.632 57.1876 13.208 57.4356 12.896C57.6836 12.576 58.0196 12.416 58.4436 12.416C58.6516 12.416 58.8356 12.456 58.9956 12.536C59.1556 12.608 59.2996 12.696 59.4276 12.8C59.5636 12.904 59.6876 12.996 59.7996 13.076C59.9116 13.148 60.0196 13.184 60.1236 13.184C60.2916 13.184 60.4276 13.128 60.5316 13.016C60.6356 12.896 60.6916 12.736 60.6996 12.536H61.6476C61.6396 13.048 61.5076 13.464 61.2516 13.784C61.0036 14.096 60.6676 14.252 60.2436 14.252ZM67.0727 21.596C66.3847 21.596 65.7727 21.452 65.2367 21.164C64.7087 20.876 64.2887 20.484 63.9767 19.988C63.6727 19.484 63.5207 18.912 63.5207 18.272C63.5207 17.624 63.6727 17.052 63.9767 16.556C64.2887 16.052 64.7087 15.66 65.2367 15.38C65.7727 15.092 66.3847 14.948 67.0727 14.948C67.7527 14.948 68.3607 15.092 68.8967 15.38C69.4327 15.66 69.8527 16.048 70.1567 16.544C70.4607 17.04 70.6127 17.616 70.6127 18.272C70.6127 18.912 70.4607 19.484 70.1567 19.988C69.8527 20.484 69.4327 20.876 68.8967 21.164C68.3607 21.452 67.7527 21.596 67.0727 21.596ZM67.0727 20.06C67.3847 20.06 67.6647 19.988 67.9127 19.844C68.1607 19.7 68.3567 19.496 68.5007 19.232C68.6447 18.96 68.7167 18.64 68.7167 18.272C68.7167 17.896 68.6447 17.576 68.5007 17.312C68.3567 17.048 68.1607 16.844 67.9127 16.7C67.6647 16.556 67.3847 16.484 67.0727 16.484C66.7607 16.484 66.4807 16.556 66.2327 16.7C65.9847 16.844 65.7847 17.048 65.6327 17.312C65.4887 17.576 65.4167 17.896 65.4167 18.272C65.4167 18.64 65.4887 18.96 65.6327 19.232C65.7847 19.496 65.9847 19.7 66.2327 19.844C66.4807 19.988 66.7607 20.06 67.0727 20.06Z" fill="white"/>
<path d="M83.566 6.6482V29.245H82.5812V6.6482H83.566Z" fill="#F7F7F7" fill-opacity="0.84"/>
<path d="M97.032 25.788C95.736 25.788 94.528 25.58 93.408 25.164C92.304 24.732 91.344 24.124 90.528 23.34C89.712 22.556 89.072 21.636 88.608 20.58C88.16 19.524 87.936 18.364 87.936 17.1C87.936 15.836 88.16 14.676 88.608 13.62C89.072 12.564 89.712 11.644 90.528 10.86C91.36 10.076 92.328 9.476 93.432 9.06C94.536 8.628 95.744 8.412 97.056 8.412C98.512 8.412 99.824 8.668 100.992 9.18C102.176 9.676 103.168 10.412 103.968 11.388L101.472 13.692C100.896 13.036 100.256 12.548 99.552 12.228C98.848 11.892 98.08 11.724 97.248 11.724C96.464 11.724 95.744 11.852 95.088 12.108C94.432 12.364 93.864 12.732 93.384 13.212C92.904 13.692 92.528 14.26 92.256 14.916C92 15.572 91.872 16.3 91.872 17.1C91.872 17.9 92 18.628 92.256 19.284C92.528 19.94 92.904 20.508 93.384 20.988C93.864 21.468 94.432 21.836 95.088 22.092C95.744 22.348 96.464 22.476 97.248 22.476C98.08 22.476 98.848 22.316 99.552 21.996C100.256 21.66 100.896 21.156 101.472 20.484L103.968 22.788C103.168 23.764 102.176 24.508 100.992 25.02C99.824 25.532 98.504 25.788 97.032 25.788ZM106.33 25.5V7.692H110.074V25.5H106.33ZM119.692 25.692C118.316 25.692 117.092 25.404 116.02 24.828C114.964 24.252 114.124 23.468 113.5 22.476C112.892 21.468 112.588 20.324 112.588 19.044C112.588 17.748 112.892 16.604 113.5 15.612C114.124 14.604 114.964 13.82 116.02 13.26C117.092 12.684 118.316 12.396 119.692 12.396C121.052 12.396 122.268 12.684 123.34 13.26C124.412 13.82 125.252 14.596 125.86 15.588C126.468 16.58 126.772 17.732 126.772 19.044C126.772 20.324 126.468 21.468 125.86 22.476C125.252 23.468 124.412 24.252 123.34 24.828C122.268 25.404 121.052 25.692 119.692 25.692ZM119.692 22.62C120.316 22.62 120.876 22.476 121.372 22.188C121.868 21.9 122.26 21.492 122.548 20.964C122.836 20.42 122.98 19.78 122.98 19.044C122.98 18.292 122.836 17.652 122.548 17.124C122.26 16.596 121.868 16.188 121.372 15.9C120.876 15.612 120.316 15.468 119.692 15.468C119.068 15.468 118.508 15.612 118.012 15.9C117.516 16.188 117.116 16.596 116.812 17.124C116.524 17.652 116.38 18.292 116.38 19.044C116.38 19.78 116.524 20.42 116.812 20.964C117.116 21.492 117.516 21.9 118.012 22.188C118.508 22.476 119.068 22.62 119.692 22.62ZM133.619 25.692C132.515 25.692 131.451 25.564 130.427 25.308C129.419 25.036 128.619 24.7 128.027 24.3L129.275 21.612C129.867 21.98 130.563 22.284 131.363 22.524C132.179 22.748 132.979 22.86 133.763 22.86C134.627 22.86 135.235 22.756 135.587 22.548C135.955 22.34 136.139 22.052 136.139 21.684C136.139 21.38 135.995 21.156 135.707 21.012C135.435 20.852 135.067 20.732 134.603 20.652C134.139 20.572 133.627 20.492 133.067 20.412C132.523 20.332 131.971 20.228 131.411 20.1C130.851 19.956 130.339 19.748 129.875 19.476C129.411 19.204 129.035 18.836 128.747 18.372C128.475 17.908 128.339 17.308 128.339 16.572C128.339 15.756 128.571 15.036 129.035 14.412C129.515 13.788 130.203 13.3 131.099 12.948C131.995 12.58 133.067 12.396 134.315 12.396C135.195 12.396 136.091 12.492 137.003 12.684C137.915 12.876 138.675 13.156 139.283 13.524L138.035 16.188C137.411 15.82 136.779 15.572 136.139 15.444C135.515 15.3 134.907 15.228 134.315 15.228C133.483 15.228 132.875 15.34 132.491 15.564C132.107 15.788 131.915 16.076 131.915 16.428C131.915 16.748 132.051 16.988 132.323 17.148C132.611 17.308 132.987 17.436 133.451 17.532C133.915 17.628 134.419 17.716 134.963 17.796C135.523 17.86 136.083 17.964 136.643 18.108C137.203 18.252 137.707 18.46 138.155 18.732C138.619 18.988 138.995 19.348 139.283 19.812C139.571 20.26 139.715 20.852 139.715 21.588C139.715 22.388 139.475 23.1 138.995 23.724C138.515 24.332 137.819 24.812 136.907 25.164C136.011 25.516 134.915 25.692 133.619 25.692ZM148.433 25.692C146.961 25.692 145.665 25.404 144.545 24.828C143.441 24.252 142.585 23.468 141.977 22.476C141.369 21.468 141.065 20.324 141.065 19.044C141.065 17.748 141.361 16.604 141.953 15.612C142.561 14.604 143.385 13.82 144.425 13.26C145.465 12.684 146.641 12.396 147.953 12.396C149.217 12.396 150.353 12.668 151.361 13.212C152.385 13.74 153.193 14.508 153.785 15.516C154.377 16.508 154.673 17.7 154.673 19.092C154.673 19.236 154.665 19.404 154.649 19.596C154.633 19.772 154.617 19.94 154.601 20.1H144.113V17.916H152.633L151.193 18.564C151.193 17.892 151.057 17.308 150.785 16.812C150.513 16.316 150.137 15.932 149.657 15.66C149.177 15.372 148.617 15.228 147.977 15.228C147.337 15.228 146.769 15.372 146.273 15.66C145.793 15.932 145.417 16.324 145.145 16.836C144.873 17.332 144.737 17.924 144.737 18.612V19.188C144.737 19.892 144.889 20.516 145.193 21.06C145.513 21.588 145.953 21.996 146.513 22.284C147.089 22.556 147.761 22.692 148.529 22.692C149.217 22.692 149.817 22.588 150.329 22.38C150.857 22.172 151.337 21.86 151.769 21.444L153.761 23.604C153.169 24.276 152.425 24.796 151.529 25.164C150.633 25.516 149.601 25.692 148.433 25.692ZM157.166 25.5V12.588H160.742V16.236L160.238 15.18C160.622 14.268 161.238 13.58 162.086 13.116C162.934 12.636 163.966 12.396 165.182 12.396V15.852C165.022 15.836 164.878 15.828 164.75 15.828C164.622 15.812 164.486 15.804 164.342 15.804C163.318 15.804 162.486 16.1 161.846 16.692C161.222 17.268 160.91 18.172 160.91 19.404V25.5H157.166Z" fill="white"/>
<path d="M178.954 25.788C177.786 25.788 176.626 25.636 175.474 25.332C174.322 25.012 173.346 24.564 172.546 23.988L174.058 21.012C174.698 21.476 175.442 21.844 176.29 22.116C177.138 22.388 177.994 22.524 178.858 22.524C179.834 22.524 180.602 22.332 181.162 21.948C181.722 21.564 182.002 21.036 182.002 20.364C182.002 19.724 181.754 19.22 181.258 18.852C180.762 18.484 179.962 18.3 178.858 18.3H177.082V15.732L181.762 10.428L182.194 11.82H173.386V8.7H185.146V11.22L180.49 16.524L178.522 15.396H179.65C181.714 15.396 183.274 15.86 184.33 16.788C185.386 17.716 185.914 18.908 185.914 20.364C185.914 21.308 185.666 22.196 185.17 23.028C184.674 23.844 183.914 24.508 182.89 25.02C181.866 25.532 180.554 25.788 178.954 25.788ZM195.221 25.788C193.685 25.788 192.349 25.468 191.213 24.828C190.093 24.188 189.229 23.252 188.621 22.02C188.013 20.788 187.709 19.268 187.709 17.46C187.709 15.524 188.069 13.884 188.789 12.54C189.525 11.196 190.533 10.172 191.813 9.468C193.109 8.764 194.597 8.412 196.277 8.412C197.173 8.412 198.029 8.508 198.845 8.7C199.661 8.892 200.365 9.18 200.957 9.564L199.517 12.42C199.053 12.1 198.557 11.884 198.029 11.772C197.501 11.644 196.949 11.58 196.373 11.58C194.917 11.58 193.765 12.02 192.917 12.9C192.069 13.78 191.645 15.084 191.645 16.812C191.645 17.1 191.645 17.42 191.645 17.772C191.661 18.124 191.709 18.476 191.789 18.828L190.709 17.82C191.013 17.196 191.405 16.676 191.885 16.26C192.365 15.828 192.933 15.508 193.589 15.3C194.261 15.076 194.997 14.964 195.797 14.964C196.885 14.964 197.861 15.18 198.725 15.612C199.589 16.044 200.277 16.652 200.789 17.436C201.317 18.22 201.581 19.14 201.581 20.196C201.581 21.332 201.293 22.324 200.717 23.172C200.157 24.004 199.397 24.652 198.437 25.116C197.493 25.564 196.421 25.788 195.221 25.788ZM195.005 22.884C195.549 22.884 196.029 22.788 196.445 22.596C196.877 22.388 197.213 22.092 197.453 21.708C197.693 21.324 197.813 20.884 197.813 20.388C197.813 19.62 197.549 19.012 197.021 18.564C196.509 18.1 195.821 17.868 194.957 17.868C194.381 17.868 193.877 17.98 193.445 18.204C193.013 18.412 192.669 18.708 192.413 19.092C192.173 19.46 192.053 19.892 192.053 20.388C192.053 20.868 192.173 21.3 192.413 21.684C192.653 22.052 192.989 22.348 193.421 22.572C193.853 22.78 194.381 22.884 195.005 22.884ZM210.191 25.788C208.815 25.788 207.583 25.452 206.495 24.78C205.407 24.092 204.551 23.1 203.927 21.804C203.303 20.508 202.991 18.94 202.991 17.1C202.991 15.26 203.303 13.692 203.927 12.396C204.551 11.1 205.407 10.116 206.495 9.444C207.583 8.756 208.815 8.412 210.191 8.412C211.583 8.412 212.815 8.756 213.887 9.444C214.975 10.116 215.831 11.1 216.455 12.396C217.079 13.692 217.391 15.26 217.391 17.1C217.391 18.94 217.079 20.508 216.455 21.804C215.831 23.1 214.975 24.092 213.887 24.78C212.815 25.452 211.583 25.788 210.191 25.788ZM210.191 22.5C210.847 22.5 211.415 22.316 211.895 21.948C212.391 21.58 212.775 20.996 213.047 20.196C213.335 19.396 213.479 18.364 213.479 17.1C213.479 15.836 213.335 14.804 213.047 14.004C212.775 13.204 212.391 12.62 211.895 12.252C211.415 11.884 210.847 11.7 210.191 11.7C209.551 11.7 208.983 11.884 208.487 12.252C208.007 12.62 207.623 13.204 207.335 14.004C207.063 14.804 206.927 15.836 206.927 17.1C206.927 18.364 207.063 19.396 207.335 20.196C207.623 20.996 208.007 21.58 208.487 21.948C208.983 22.316 209.551 22.5 210.191 22.5Z" fill="#F3811E"/>
</svg>
