<svg width="316" height="47" viewBox="0 0 316 47" fill="none" xmlns="http://www.w3.org/2000/svg">
<g clip-path="url(#clip0_1_82)">
<path d="M5.54552 31.3621V18.3276H8.56207V31.3621H5.54552ZM24.2803 21.1952C25.0747 21.1952 25.7761 21.3566 26.3844 21.6793C27.0051 21.9897 27.4892 22.4738 27.8368 23.1317C28.1968 23.7772 28.3768 24.609 28.3768 25.6269V31.3621H25.472V26.0738C25.472 25.2669 25.3044 24.671 24.9692 24.2862C24.6341 23.9014 24.1623 23.709 23.5541 23.709C23.132 23.709 22.7534 23.8083 22.4182 24.0069C22.083 24.1931 21.8223 24.4786 21.6361 24.8634C21.4499 25.2483 21.3568 25.7386 21.3568 26.3345V31.3621H18.452V26.0738C18.452 25.2669 18.2844 24.671 17.9492 24.2862C17.6265 23.9014 17.1609 23.709 16.5527 23.709C16.1306 23.709 15.752 23.8083 15.4168 24.0069C15.0816 24.1931 14.8209 24.4786 14.6347 24.8634C14.4485 25.2483 14.3554 25.7386 14.3554 26.3345V31.3621H11.4506V21.3441H14.2251V24.0814L13.7037 23.2807C14.0513 22.5979 14.5416 22.0828 15.1747 21.7352C15.8203 21.3752 16.5527 21.1952 17.372 21.1952C18.2906 21.1952 19.0913 21.431 19.7741 21.9028C20.4692 22.3621 20.9285 23.0697 21.152 24.0255L20.1278 23.7462C20.463 22.9641 20.9968 22.3434 21.7292 21.8841C22.4741 21.4248 23.3244 21.1952 24.2803 21.1952ZM36.025 31.511C34.8829 31.511 33.8774 31.2876 33.0084 30.8407C32.1519 30.3938 31.4877 29.7855 31.016 29.0159C30.5443 28.2338 30.3084 27.3462 30.3084 26.3531C30.3084 25.3476 30.5381 24.46 30.9974 23.6903C31.4691 22.9083 32.1084 22.3 32.9153 21.8655C33.7222 21.4186 34.6346 21.1952 35.6526 21.1952C36.6332 21.1952 37.5146 21.4062 38.2967 21.8283C39.0912 22.2379 39.7181 22.8338 40.1774 23.6159C40.6367 24.3855 40.8663 25.3103 40.8663 26.3903C40.8663 26.5021 40.8601 26.6324 40.8477 26.7814C40.8353 26.9179 40.8229 27.0483 40.8105 27.1724H32.6732V25.4779H39.2836L38.1663 25.9807C38.1663 25.4593 38.0608 25.0062 37.8498 24.6214C37.6388 24.2366 37.347 23.9386 36.9746 23.7276C36.6022 23.5041 36.1677 23.3924 35.6712 23.3924C35.1746 23.3924 34.7339 23.5041 34.3491 23.7276C33.9767 23.9386 33.685 24.2428 33.4739 24.64C33.2629 25.0248 33.1574 25.4841 33.1574 26.0179V26.4648C33.1574 27.011 33.2753 27.4952 33.5112 27.9172C33.7595 28.3269 34.1008 28.6434 34.5353 28.8669C34.9822 29.0779 35.5036 29.1834 36.0995 29.1834C36.6332 29.1834 37.0988 29.1028 37.496 28.9414C37.9057 28.78 38.2781 28.5379 38.6132 28.2152L40.1588 29.891C39.6995 30.4124 39.1222 30.8159 38.427 31.1014C37.7319 31.3745 36.9312 31.511 36.025 31.511ZM42.8003 31.3621V21.3441H45.5748V24.1745L45.1837 23.3552C45.4817 22.6476 45.9596 22.1138 46.6175 21.7538C47.2755 21.3814 48.0761 21.1952 49.0196 21.1952V23.8766C48.8955 23.8641 48.7837 23.8579 48.6844 23.8579C48.5851 23.8455 48.4796 23.8393 48.3679 23.8393C47.5734 23.8393 46.9279 24.069 46.4313 24.5283C45.9472 24.9752 45.7051 25.6766 45.7051 26.6324V31.3621H42.8003ZM54.1899 31.511C53.3333 31.511 52.5078 31.4117 51.7133 31.2131C50.9313 31.0021 50.3106 30.7414 49.8513 30.431L50.8195 28.3455C51.2789 28.631 51.8189 28.8669 52.4395 29.0531C53.0726 29.2269 53.6933 29.3138 54.3016 29.3138C54.972 29.3138 55.4437 29.2331 55.7168 29.0717C56.0023 28.9103 56.1451 28.6869 56.1451 28.4014C56.1451 28.1655 56.0333 27.9917 55.8099 27.88C55.5989 27.7559 55.3133 27.6628 54.9533 27.6007C54.5933 27.5386 54.1961 27.4766 53.7616 27.4145C53.3395 27.3524 52.9113 27.2717 52.4768 27.1724C52.0423 27.0607 51.6451 26.8993 51.2851 26.6883C50.9251 26.4772 50.6333 26.1917 50.4099 25.8317C50.1989 25.4717 50.0933 25.0062 50.0933 24.4352C50.0933 23.8021 50.2733 23.2434 50.6333 22.7593C51.0057 22.2752 51.5395 21.8966 52.2347 21.6234C52.9299 21.3379 53.7616 21.1952 54.7299 21.1952C55.4126 21.1952 56.1078 21.2697 56.8154 21.4186C57.523 21.5676 58.1126 21.7848 58.5844 22.0703L57.6161 24.1372C57.132 23.8517 56.6416 23.6593 56.1451 23.56C55.6609 23.4483 55.1892 23.3924 54.7299 23.3924C54.0844 23.3924 53.6126 23.4793 53.3147 23.6531C53.0168 23.8269 52.8678 24.0503 52.8678 24.3234C52.8678 24.5717 52.9733 24.7579 53.1844 24.8821C53.4078 25.0062 53.6995 25.1055 54.0595 25.18C54.4195 25.2545 54.8106 25.3228 55.2326 25.3848C55.6671 25.4345 56.1016 25.5152 56.5361 25.6269C56.9706 25.7386 57.3616 25.9 57.7092 26.111C58.0692 26.3097 58.3609 26.589 58.5844 26.949C58.8078 27.2966 58.9195 27.7559 58.9195 28.3269C58.9195 28.9476 58.7333 29.5 58.3609 29.9841C57.9885 30.4559 57.4485 30.8283 56.7409 31.1014C56.0457 31.3745 55.1954 31.511 54.1899 31.511ZM66.8566 31.3621V29.4069L66.6704 28.9786V25.4779C66.6704 24.8572 66.478 24.3731 66.0932 24.0255C65.7207 23.6779 65.1435 23.5041 64.3614 23.5041C63.8276 23.5041 63.3001 23.591 62.7787 23.7648C62.2697 23.9262 61.8352 24.1497 61.4752 24.4352L60.4325 22.4055C60.9787 22.0207 61.6366 21.7228 62.4063 21.5117C63.1759 21.3007 63.958 21.1952 64.7525 21.1952C66.2794 21.1952 67.4649 21.5552 68.309 22.2752C69.1532 22.9952 69.5752 24.1186 69.5752 25.6455V31.3621H66.8566ZM63.8028 31.511C63.0207 31.511 62.3504 31.3807 61.7918 31.12C61.2332 30.8469 60.8049 30.4807 60.507 30.0214C60.209 29.5621 60.0601 29.0469 60.0601 28.4759C60.0601 27.88 60.2028 27.3586 60.4883 26.9117C60.7863 26.4648 61.2518 26.1172 61.8849 25.869C62.518 25.6083 63.3435 25.4779 64.3614 25.4779H67.0242V27.1724H64.678C63.9952 27.1724 63.5235 27.2841 63.2628 27.5076C63.0145 27.731 62.8904 28.0103 62.8904 28.3455C62.8904 28.7179 63.0332 29.0159 63.3187 29.2393C63.6166 29.4503 64.0201 29.5559 64.529 29.5559C65.0132 29.5559 65.4476 29.4441 65.8325 29.2207C66.2173 28.9848 66.4966 28.6434 66.6704 28.1966L67.1173 29.5372C66.9063 30.1828 66.5214 30.6731 65.9628 31.0083C65.4042 31.3434 64.6842 31.511 63.8028 31.511ZM66.447 20.1152C66.1242 20.1152 65.8387 20.0593 65.5904 19.9476C65.3421 19.8234 65.1187 19.6869 64.9201 19.5379C64.7214 19.3766 64.5352 19.24 64.3614 19.1283C64.1876 19.0041 64.0139 18.9421 63.8401 18.9421C63.5918 18.9421 63.387 19.0352 63.2256 19.2214C63.0642 19.3952 62.9711 19.6497 62.9463 19.9848H61.4752C61.5001 19.1531 61.7049 18.4952 62.0897 18.011C62.4745 17.5145 62.9959 17.2662 63.6539 17.2662C63.9766 17.2662 64.2621 17.3283 64.5104 17.4524C64.7587 17.5641 64.9821 17.7007 65.1807 17.8621C65.3918 18.0234 65.5842 18.1662 65.758 18.2903C65.9318 18.4021 66.0994 18.4579 66.2607 18.4579C66.5214 18.4579 66.7325 18.371 66.8939 18.1972C67.0552 18.011 67.1421 17.7628 67.1545 17.4524H68.6256C68.6132 18.2469 68.4083 18.8924 68.0111 19.389C67.6263 19.8731 67.1049 20.1152 66.447 20.1152ZM77.0439 31.511C75.9763 31.511 75.0266 31.2876 74.1949 30.8407C73.3756 30.3938 72.7239 29.7855 72.2397 29.0159C71.768 28.2338 71.5321 27.3462 71.5321 26.3531C71.5321 25.3476 71.768 24.46 72.2397 23.6903C72.7239 22.9083 73.3756 22.3 74.1949 21.8655C75.0266 21.4186 75.9763 21.1952 77.0439 21.1952C78.099 21.1952 79.0425 21.4186 79.8742 21.8655C80.7059 22.3 81.3577 22.9021 81.8294 23.6717C82.3011 24.4414 82.537 25.3352 82.537 26.3531C82.537 27.3462 82.3011 28.2338 81.8294 29.0159C81.3577 29.7855 80.7059 30.3938 79.8742 30.8407C79.0425 31.2876 78.099 31.511 77.0439 31.511ZM77.0439 29.1276C77.528 29.1276 77.9625 29.0159 78.3473 28.7924C78.7321 28.569 79.0363 28.2524 79.2597 27.8428C79.4832 27.4207 79.5949 26.9241 79.5949 26.3531C79.5949 25.7697 79.4832 25.2731 79.2597 24.8634C79.0363 24.4538 78.7321 24.1372 78.3473 23.9138C77.9625 23.6903 77.528 23.5786 77.0439 23.5786C76.5597 23.5786 76.1253 23.6903 75.7404 23.9138C75.3556 24.1372 75.0453 24.4538 74.8094 24.8634C74.5859 25.2731 74.4742 25.7697 74.4742 26.3531C74.4742 26.9241 74.5859 27.4207 74.8094 27.8428C75.0453 28.2524 75.3556 28.569 75.7404 28.7924C76.1253 29.0159 76.5597 29.1276 77.0439 29.1276Z" fill="black"/>
<path d="M102.637 8.93687V44.0009H101.109V8.93687H102.637Z" fill="black" fill-opacity="0.84"/>
<path d="M123.532 38.9469C121.521 38.9469 119.647 38.6241 117.909 37.9786C116.196 37.3083 114.706 36.3648 113.44 35.1483C112.174 33.9317 111.181 32.5041 110.461 30.8655C109.766 29.2269 109.418 27.4269 109.418 25.4655C109.418 23.5041 109.766 21.7041 110.461 20.0655C111.181 18.4269 112.174 16.9993 113.44 15.7828C114.731 14.5662 116.233 13.6352 117.946 12.9897C119.659 12.3193 121.534 11.9841 123.57 11.9841C125.829 11.9841 127.865 12.3814 129.677 13.1759C131.514 13.9455 133.054 15.0876 134.295 16.6021L130.422 20.1772C129.528 19.1593 128.535 18.4021 127.443 17.9055C126.35 17.3841 125.159 17.1234 123.868 17.1234C122.651 17.1234 121.534 17.3221 120.516 17.7193C119.498 18.1166 118.617 18.6876 117.872 19.4324C117.127 20.1772 116.543 21.0586 116.121 22.0766C115.724 23.0945 115.526 24.2241 115.526 25.4655C115.526 26.7069 115.724 27.8366 116.121 28.8545C116.543 29.8724 117.127 30.7538 117.872 31.4986C118.617 32.2434 119.498 32.8145 120.516 33.2117C121.534 33.609 122.651 33.8076 123.868 33.8076C125.159 33.8076 126.35 33.5593 127.443 33.0628C128.535 32.5414 129.528 31.7593 130.422 30.7166L134.295 34.2917C133.054 35.8062 131.514 36.9607 129.677 37.7552C127.865 38.5497 125.817 38.9469 123.532 38.9469ZM137.96 38.5V10.8669H143.769V38.5H137.96ZM158.695 38.7979C156.56 38.7979 154.66 38.351 152.997 37.4572C151.358 36.5634 150.055 35.3469 149.087 33.8076C148.143 32.2434 147.672 30.4683 147.672 28.4821C147.672 26.471 148.143 24.6959 149.087 23.1566C150.055 21.5924 151.358 20.3759 152.997 19.5069C154.66 18.6131 156.56 18.1662 158.695 18.1662C160.805 18.1662 162.692 18.6131 164.356 19.5069C166.019 20.3759 167.323 21.58 168.266 23.1193C169.209 24.6586 169.681 26.4462 169.681 28.4821C169.681 30.4683 169.209 32.2434 168.266 33.8076C167.323 35.3469 166.019 36.5634 164.356 37.4572C162.692 38.351 160.805 38.7979 158.695 38.7979ZM158.695 34.031C159.663 34.031 160.532 33.8076 161.302 33.3607C162.072 32.9138 162.68 32.2807 163.127 31.4614C163.574 30.6172 163.797 29.6241 163.797 28.4821C163.797 27.3152 163.574 26.3221 163.127 25.5028C162.68 24.6834 162.072 24.0503 161.302 23.6034C160.532 23.1566 159.663 22.9331 158.695 22.9331C157.727 22.9331 156.858 23.1566 156.088 23.6034C155.318 24.0503 154.698 24.6834 154.226 25.5028C153.779 26.3221 153.556 27.3152 153.556 28.4821C153.556 29.6241 153.779 30.6172 154.226 31.4614C154.698 32.2807 155.318 32.9138 156.088 33.3607C156.858 33.8076 157.727 34.031 158.695 34.031ZM180.305 38.7979C178.592 38.7979 176.941 38.5993 175.352 38.2021C173.788 37.78 172.547 37.2586 171.628 36.6379L173.564 32.4669C174.483 33.0379 175.563 33.5097 176.804 33.8821C178.071 34.2297 179.312 34.4034 180.529 34.4034C181.869 34.4034 182.813 34.2421 183.359 33.9193C183.93 33.5966 184.215 33.1497 184.215 32.5786C184.215 32.1069 183.992 31.7593 183.545 31.5359C183.123 31.2876 182.552 31.1014 181.832 30.9772C181.112 30.8531 180.318 30.729 179.449 30.6048C178.604 30.4807 177.748 30.3193 176.879 30.1207C176.01 29.8972 175.215 29.5745 174.495 29.1524C173.775 28.7303 173.192 28.1593 172.745 27.4393C172.323 26.7193 172.112 25.7883 172.112 24.6462C172.112 23.38 172.472 22.2628 173.192 21.2945C173.937 20.3262 175.004 19.569 176.395 19.0228C177.785 18.4517 179.449 18.1662 181.385 18.1662C182.751 18.1662 184.141 18.3152 185.556 18.6131C186.971 18.911 188.151 19.3455 189.094 19.9166L187.158 24.0503C186.189 23.4793 185.209 23.0945 184.215 22.8959C183.247 22.6724 182.304 22.5607 181.385 22.5607C180.094 22.5607 179.151 22.7345 178.555 23.0821C177.959 23.4297 177.661 23.8766 177.661 24.4228C177.661 24.9193 177.872 25.2917 178.294 25.54C178.741 25.7883 179.324 25.9869 180.044 26.1359C180.764 26.2848 181.547 26.4214 182.391 26.5455C183.26 26.6448 184.129 26.8062 184.998 27.0297C185.867 27.2531 186.649 27.5759 187.344 27.9979C188.064 28.3952 188.647 28.9538 189.094 29.6738C189.541 30.369 189.764 31.2876 189.764 32.4297C189.764 33.671 189.392 34.7759 188.647 35.7441C187.902 36.6876 186.822 37.4324 185.407 37.9786C184.017 38.5248 182.316 38.7979 180.305 38.7979ZM203.292 38.7979C201.008 38.7979 198.997 38.351 197.259 37.4572C195.546 36.5634 194.218 35.3469 193.274 33.8076C192.331 32.2434 191.859 30.4683 191.859 28.4821C191.859 26.471 192.319 24.6959 193.237 23.1566C194.181 21.5924 195.459 20.3759 197.073 19.5069C198.687 18.6131 200.512 18.1662 202.548 18.1662C204.509 18.1662 206.272 18.5883 207.836 19.4324C209.425 20.2517 210.679 21.4434 211.597 23.0076C212.516 24.5469 212.975 26.3966 212.975 28.5566C212.975 28.78 212.963 29.0407 212.938 29.3386C212.913 29.6117 212.888 29.8724 212.863 30.1207H196.589V26.7317H209.81L207.575 27.7372C207.575 26.6945 207.364 25.7883 206.942 25.0186C206.52 24.249 205.937 23.6531 205.192 23.231C204.447 22.7841 203.578 22.5607 202.585 22.5607C201.592 22.5607 200.71 22.7841 199.941 23.231C199.196 23.6531 198.612 24.2614 198.19 25.0559C197.768 25.8255 197.557 26.7441 197.557 27.8117V28.7055C197.557 29.7979 197.793 30.7662 198.265 31.6103C198.761 32.4297 199.444 33.0628 200.313 33.5097C201.207 33.9317 202.25 34.1428 203.441 34.1428C204.509 34.1428 205.44 33.9814 206.234 33.6586C207.054 33.3359 207.799 32.8517 208.469 32.2062L211.56 35.5579C210.641 36.6007 209.487 37.4076 208.097 37.9786C206.706 38.5248 205.105 38.7979 203.292 38.7979ZM216.843 38.5V18.4641H222.392V24.1248L221.61 22.4862C222.206 21.071 223.162 20.0034 224.477 19.2834C225.793 18.5386 227.395 18.1662 229.282 18.1662V23.529C229.033 23.5041 228.81 23.4917 228.611 23.4917C228.413 23.4669 228.202 23.4545 227.978 23.4545C226.389 23.4545 225.098 23.9138 224.105 24.8324C223.137 25.7262 222.653 27.129 222.653 29.0407V38.5H216.843Z" fill="black"/>
<path d="M250.653 38.9469C248.841 38.9469 247.041 38.711 245.253 38.2393C243.466 37.7428 241.951 37.0476 240.71 36.1538L243.056 31.5359C244.049 32.2559 245.204 32.8269 246.519 33.249C247.835 33.671 249.164 33.8821 250.504 33.8821C252.019 33.8821 253.21 33.5841 254.079 32.9883C254.948 32.3924 255.383 31.5731 255.383 30.5303C255.383 29.5372 254.998 28.7552 254.228 28.1841C253.459 27.6131 252.217 27.3276 250.504 27.3276H247.748V23.3428L255.01 15.1124L255.681 17.2724H242.013V12.431H260.262V16.3414L253.037 24.5717L249.983 22.8214H251.733C254.936 22.8214 257.357 23.5414 258.995 24.9814C260.634 26.4214 261.453 28.271 261.453 30.5303C261.453 31.9952 261.068 33.3731 260.299 34.6641C259.529 35.9303 258.35 36.9607 256.761 37.7552C255.172 38.5497 253.136 38.9469 250.653 38.9469ZM275.895 38.9469C273.512 38.9469 271.439 38.4503 269.676 37.4572C267.938 36.4641 266.597 35.0117 265.654 33.1C264.71 31.1883 264.239 28.8297 264.239 26.0241C264.239 23.02 264.797 20.4752 265.915 18.3897C267.057 16.3041 268.621 14.7152 270.607 13.6228C272.618 12.5303 274.927 11.9841 277.534 11.9841C278.924 11.9841 280.253 12.1331 281.519 12.431C282.785 12.729 283.877 13.1759 284.796 13.7717L282.562 18.2034C281.842 17.7069 281.072 17.3717 280.253 17.1979C279.433 16.9993 278.577 16.9 277.683 16.9C275.424 16.9 273.636 17.5828 272.32 18.9483C271.004 20.3138 270.346 22.3372 270.346 25.0186C270.346 25.4655 270.346 25.9621 270.346 26.5083C270.371 27.0545 270.446 27.6007 270.57 28.1469L268.894 26.5828C269.366 25.6145 269.974 24.8076 270.719 24.1621C271.464 23.4917 272.345 22.9952 273.363 22.6724C274.406 22.3248 275.548 22.151 276.789 22.151C278.477 22.151 279.992 22.4862 281.333 23.1566C282.673 23.8269 283.741 24.7703 284.535 25.9869C285.355 27.2034 285.764 28.631 285.764 30.2697C285.764 32.0324 285.317 33.5717 284.424 34.8876C283.555 36.1786 282.375 37.1841 280.886 37.9041C279.421 38.5993 277.757 38.9469 275.895 38.9469ZM275.56 34.4407C276.404 34.4407 277.149 34.2917 277.795 33.9938C278.465 33.671 278.986 33.2117 279.359 32.6159C279.731 32.02 279.917 31.3372 279.917 30.5676C279.917 29.3759 279.508 28.4324 278.688 27.7372C277.894 27.0172 276.826 26.6572 275.486 26.6572C274.592 26.6572 273.81 26.831 273.139 27.1786C272.469 27.5014 271.935 27.9607 271.538 28.5566C271.166 29.1276 270.979 29.7979 270.979 30.5676C270.979 31.3124 271.166 31.9828 271.538 32.5786C271.91 33.1497 272.432 33.609 273.102 33.9566C273.773 34.2793 274.592 34.4407 275.56 34.4407ZM299.123 38.9469C296.988 38.9469 295.077 38.4255 293.388 37.3828C291.7 36.3152 290.372 34.7759 289.403 32.7648C288.435 30.7538 287.951 28.3207 287.951 25.4655C287.951 22.6103 288.435 20.1772 289.403 18.1662C290.372 16.1552 291.7 14.6283 293.388 13.5855C295.077 12.5179 296.988 11.9841 299.123 11.9841C301.283 11.9841 303.195 12.5179 304.859 13.5855C306.547 14.6283 307.875 16.1552 308.843 18.1662C309.812 20.1772 310.296 22.6103 310.296 25.4655C310.296 28.3207 309.812 30.7538 308.843 32.7648C307.875 34.7759 306.547 36.3152 304.859 37.3828C303.195 38.4255 301.283 38.9469 299.123 38.9469ZM299.123 33.8448C300.141 33.8448 301.023 33.5593 301.768 32.9883C302.537 32.4172 303.133 31.511 303.555 30.2697C304.002 29.0283 304.226 27.4269 304.226 25.4655C304.226 23.5041 304.002 21.9028 303.555 20.6614C303.133 19.42 302.537 18.5138 301.768 17.9428C301.023 17.3717 300.141 17.0862 299.123 17.0862C298.13 17.0862 297.249 17.3717 296.479 17.9428C295.735 18.5138 295.139 19.42 294.692 20.6614C294.27 21.9028 294.059 23.5041 294.059 25.4655C294.059 27.4269 294.27 29.0283 294.692 30.2697C295.139 31.511 295.735 32.4172 296.479 32.9883C297.249 33.5593 298.13 33.8448 299.123 33.8448Z" fill="#F3811E"/>
</g>
<defs>
<clipPath id="clip0_1_82">
<rect width="316" height="47" fill="white"/>
</clipPath>
</defs>
</svg>
