<svg xmlns="http://www.w3.org/2000/svg" width="137" height="105" viewBox="0 0 137 105" fill="none"><g opacity="0.2"><path d="M35.5435 13.9604L21.4568 16.625L23.2054 25.8694C19.8518 26.7819 16.9344 27.8881 14.4534 29.1881C10.7908 31.1296 7.94211 33.3333 5.90731 35.7994C3.85984 38.1985 2.5003 40.7449 1.82869 43.4387C1.22417 46.1198 1.16262 48.7329 1.64405 51.278C2.34084 54.9617 3.70771 57.9636 5.74464 60.2838C7.7689 62.537 10.3354 64.1674 13.4441 65.1749C16.6199 66.1697 20.2836 66.6213 24.4351 66.5298L43.8647 65.664C47.3998 65.6197 49.9268 65.9395 51.4458 66.6233C53.0318 67.2945 54.0212 68.6682 54.4139 70.7445C54.6927 72.2179 54.5182 73.4996 53.8906 74.5896C53.263 75.6795 51.9203 76.6619 49.8624 77.5367C47.7919 78.3446 44.7442 79.1292 40.7194 79.8906C36.158 80.7534 32.6129 81.1118 30.084 80.9659C27.5551 80.8199 25.7007 80.1994 24.5209 79.1045C23.4081 77.997 22.6554 76.405 22.2626 74.3288L21.9206 72.5205L6.8276 75.3754L6.94162 75.9782C7.9298 81.2023 10.0006 85.3545 13.154 88.4347C16.2948 91.4479 20.4175 93.4083 25.5222 94.3157C28.7482 94.8481 32.3118 94.9548 36.2132 94.6355L37.9898 104.028L52.0766 101.363L50.2973 91.957C54.1946 90.7599 57.455 89.2632 60.0784 87.4669C64.1383 84.6872 66.8767 81.533 68.2937 78.0045C69.6979 74.409 70.058 70.8029 69.3739 67.1863C68.7911 64.1054 67.5882 61.4193 65.7652 59.128C63.9295 56.7698 61.3313 54.9719 57.9707 53.7346C54.6771 52.4846 50.4388 51.9335 45.2558 52.0815L25.7691 52.6458C23.8276 52.6662 22.2423 52.5499 21.0132 52.2968C19.7842 52.0436 18.8253 51.566 18.1367 50.8638C17.4353 50.0946 16.9643 49.0738 16.7236 47.8012C16.4449 46.3278 16.6529 45.0397 17.3475 43.9371C18.0422 42.8345 19.3514 41.8585 21.2751 41.009C23.2659 40.1468 26.0724 39.3731 29.6948 38.6879C34.1891 37.8378 37.7071 37.5192 40.2486 37.7321C42.7775 37.8781 44.6047 38.5384 45.7301 39.7129C46.9226 40.8748 47.7216 42.5273 48.127 44.6706L48.393 46.077L63.5866 43.203L63.4725 42.6003C62.5857 37.912 60.6998 34.0023 57.8147 30.8714C54.9169 27.6734 51.0372 25.5284 46.1754 24.4362C43.5535 23.7971 40.6189 23.5267 37.3717 23.6249L35.5435 13.9604Z" stroke="#7C848C" style="stroke:#7C848C;stroke:color(display-p3 0.4863 0.5176 0.5490);stroke-opacity:1;"></path><path d="M102.263 1.3398L88.1764 4.00444L89.925 13.2488C86.5713 14.1613 83.6539 15.2675 81.1729 16.5675C77.5103 18.509 74.6617 20.7127 72.6269 23.1788C70.5794 25.5779 69.2199 28.1243 68.5483 30.8181C67.9437 33.4992 67.8822 36.1123 68.3636 38.6574C69.0604 42.3411 70.4272 45.343 72.4642 47.6632C74.4884 49.9164 77.0549 51.5468 80.1637 52.5543C83.3395 53.5491 87.0032 54.0007 91.1547 53.9091L110.584 53.0434C114.119 52.9991 116.646 53.3189 118.165 54.0027C119.751 54.6739 120.741 56.0476 121.134 58.1239C121.412 59.5973 121.238 60.879 120.61 61.969C119.983 63.0589 118.64 64.0413 116.582 64.9161C114.511 65.724 111.464 66.5086 107.439 67.27C102.878 68.1328 99.3324 68.4912 96.8035 68.3452C94.2747 68.1993 92.4203 67.5788 91.2404 66.4839C90.1277 65.3763 89.3749 63.7844 88.9822 61.7082L88.6401 59.8999L73.5471 62.7548L73.6612 63.3576C74.6494 68.5817 76.7202 72.7339 79.8736 75.8141C83.0143 78.8273 87.1371 80.7877 92.2418 81.6951C95.4677 82.2275 99.0314 82.3342 102.933 82.0149L104.709 91.4074L118.796 88.7428L117.017 79.3364C120.914 78.1392 124.175 76.6425 126.798 74.8463C130.858 72.0665 133.596 68.9124 135.013 65.3839C136.417 61.7884 136.778 58.1823 136.093 54.5657C135.511 51.4848 134.308 48.7987 132.485 46.5074C130.649 44.1492 128.051 42.3513 124.69 41.114C121.397 39.864 117.158 39.3129 111.975 39.4609L92.4887 40.0252C90.5471 40.0456 88.9619 39.9293 87.7328 39.6761C86.5038 39.423 85.5449 38.9454 84.8562 38.2432C84.1549 37.474 83.6839 36.4532 83.4432 35.1806C83.1644 33.7072 83.3724 32.4191 84.0671 31.3165C84.7618 30.2139 86.0709 29.2379 87.9947 28.3884C89.9854 27.5262 92.792 26.7525 96.4143 26.0673C100.909 25.2171 104.427 24.8986 106.968 25.1115C109.497 25.2575 111.324 25.9178 112.45 27.0923C113.642 28.2542 114.441 29.9067 114.847 32.0499L115.113 33.4564L130.306 30.5824L130.192 29.9797C129.305 25.2914 127.419 21.3817 124.534 18.2508C121.636 15.0528 117.757 12.9078 112.895 11.8156C110.273 11.1765 107.338 10.9061 104.091 11.0043L102.263 1.3398Z" stroke="#7C848C" style="stroke:#7C848C;stroke:color(display-p3 0.4863 0.5176 0.5490);stroke-opacity:1;"></path></g></svg>