<svg width="183" height="47" viewBox="0 0 183 47" fill="none" xmlns="http://www.w3.org/2000/svg">
<path d="M16.376 34.884C14.648 34.884 13.0373 34.6067 11.544 34.052C10.072 33.476 8.792 32.6653 7.704 31.62C6.616 30.5747 5.76267 29.348 5.144 27.94C4.54667 26.532 4.248 24.9853 4.248 23.3C4.248 21.6147 4.54667 20.068 5.144 18.66C5.76267 17.252 6.616 16.0253 7.704 14.98C8.81333 13.9347 10.104 13.1347 11.576 12.58C13.048 12.004 14.6587 11.716 16.408 11.716C18.3493 11.716 20.0987 12.0573 21.656 12.74C23.2347 13.4013 24.5573 14.3827 25.624 15.684L22.296 18.756C21.528 17.8813 20.6747 17.2307 19.736 16.804C18.7973 16.356 17.7733 16.132 16.664 16.132C15.6187 16.132 14.6587 16.3027 13.784 16.644C12.9093 16.9853 12.152 17.476 11.512 18.116C10.872 18.756 10.3707 19.5133 10.008 20.388C9.66667 21.2627 9.496 22.2333 9.496 23.3C9.496 24.3667 9.66667 25.3373 10.008 26.212C10.3707 27.0867 10.872 27.844 11.512 28.484C12.152 29.124 12.9093 29.6147 13.784 29.956C14.6587 30.2973 15.6187 30.468 16.664 30.468C17.7733 30.468 18.7973 30.2547 19.736 29.828C20.6747 29.38 21.528 28.708 22.296 27.812L25.624 30.884C24.5573 32.1853 23.2347 33.1773 21.656 33.86C20.0987 34.5427 18.3387 34.884 16.376 34.884ZM28.7728 34.5V10.756H33.7648V34.5H28.7728ZM46.5898 34.756C44.7551 34.756 43.1231 34.372 41.6938 33.604C40.2858 32.836 39.1658 31.7907 38.3338 30.468C37.5231 29.124 37.1178 27.5987 37.1178 25.892C37.1178 24.164 37.5231 22.6387 38.3338 21.316C39.1658 19.972 40.2858 18.9267 41.6938 18.18C43.1231 17.412 44.7551 17.028 46.5898 17.028C48.4031 17.028 50.0244 17.412 51.4538 18.18C52.8831 18.9267 54.0031 19.9613 54.8138 21.284C55.6244 22.6067 56.0298 24.1427 56.0298 25.892C56.0298 27.5987 55.6244 29.124 54.8138 30.468C54.0031 31.7907 52.8831 32.836 51.4538 33.604C50.0244 34.372 48.4031 34.756 46.5898 34.756ZM46.5898 30.66C47.4218 30.66 48.1684 30.468 48.8298 30.084C49.4911 29.7 50.0138 29.156 50.3978 28.452C50.7818 27.7267 50.9738 26.8733 50.9738 25.892C50.9738 24.8893 50.7818 24.036 50.3978 23.332C50.0138 22.628 49.4911 22.084 48.8298 21.7C48.1684 21.316 47.4218 21.124 46.5898 21.124C45.7578 21.124 45.0111 21.316 44.3498 21.7C43.6884 22.084 43.1551 22.628 42.7498 23.332C42.3658 24.036 42.1738 24.8893 42.1738 25.892C42.1738 26.8733 42.3658 27.7267 42.7498 28.452C43.1551 29.156 43.6884 29.7 44.3498 30.084C45.0111 30.468 45.7578 30.66 46.5898 30.66ZM65.1585 34.756C63.6865 34.756 62.2678 34.5853 60.9025 34.244C59.5585 33.8813 58.4918 33.4333 57.7025 32.9L59.3665 29.316C60.1558 29.8067 61.0838 30.212 62.1505 30.532C63.2385 30.8307 64.3052 30.98 65.3505 30.98C66.5025 30.98 67.3132 30.8413 67.7825 30.564C68.2732 30.2867 68.5185 29.9027 68.5185 29.412C68.5185 29.0067 68.3265 28.708 67.9425 28.516C67.5798 28.3027 67.0892 28.1427 66.4705 28.036C65.8518 27.9293 65.1692 27.8227 64.4225 27.716C63.6972 27.6093 62.9612 27.4707 62.2145 27.3C61.4678 27.108 60.7852 26.8307 60.1665 26.468C59.5478 26.1053 59.0465 25.6147 58.6625 24.996C58.2998 24.3773 58.1185 23.5773 58.1185 22.596C58.1185 21.508 58.4278 20.548 59.0465 19.716C59.6865 18.884 60.6038 18.2333 61.7985 17.764C62.9932 17.2733 64.4225 17.028 66.0865 17.028C67.2598 17.028 68.4545 17.156 69.6705 17.412C70.8865 17.668 71.8998 18.0413 72.7105 18.532L71.0465 22.084C70.2145 21.5933 69.3718 21.2627 68.5185 21.092C67.6865 20.9 66.8758 20.804 66.0865 20.804C64.9772 20.804 64.1665 20.9533 63.6545 21.252C63.1425 21.5507 62.8865 21.9347 62.8865 22.404C62.8865 22.8307 63.0678 23.1507 63.4305 23.364C63.8145 23.5773 64.3158 23.748 64.9345 23.876C65.5532 24.004 66.2252 24.1213 66.9505 24.228C67.6972 24.3133 68.4438 24.452 69.1905 24.644C69.9372 24.836 70.6092 25.1133 71.2065 25.476C71.8252 25.8173 72.3265 26.2973 72.7105 26.916C73.0945 27.5133 73.2865 28.3027 73.2865 29.284C73.2865 30.3507 72.9665 31.3 72.3265 32.132C71.6865 32.9427 70.7585 33.5827 69.5425 34.052C68.3478 34.5213 66.8865 34.756 65.1585 34.756ZM84.9105 34.756C82.9478 34.756 81.2198 34.372 79.7265 33.604C78.2545 32.836 77.1132 31.7907 76.3025 30.468C75.4918 29.124 75.0865 27.5987 75.0865 25.892C75.0865 24.164 75.4812 22.6387 76.2705 21.316C77.0812 19.972 78.1798 18.9267 79.5665 18.18C80.9532 17.412 82.5212 17.028 84.2705 17.028C85.9558 17.028 87.4705 17.3907 88.8145 18.116C90.1798 18.82 91.2572 19.844 92.0465 21.188C92.8358 22.5107 93.2305 24.1 93.2305 25.956C93.2305 26.148 93.2198 26.372 93.1985 26.628C93.1772 26.8627 93.1558 27.0867 93.1345 27.3H79.1505V24.388H90.5105L88.5905 25.252C88.5905 24.356 88.4092 23.5773 88.0465 22.916C87.6838 22.2547 87.1825 21.7427 86.5425 21.38C85.9025 20.996 85.1558 20.804 84.3025 20.804C83.4492 20.804 82.6918 20.996 82.0305 21.38C81.3905 21.7427 80.8892 22.2653 80.5265 22.948C80.1638 23.6093 79.9825 24.3987 79.9825 25.316V26.084C79.9825 27.0227 80.1852 27.8547 80.5905 28.58C81.0172 29.284 81.6038 29.828 82.3505 30.212C83.1185 30.5747 84.0145 30.756 85.0385 30.756C85.9558 30.756 86.7558 30.6173 87.4385 30.34C88.1425 30.0627 88.7825 29.6467 89.3585 29.092L92.0145 31.972C91.2252 32.868 90.2332 33.5613 89.0385 34.052C87.8438 34.5213 86.4678 34.756 84.9105 34.756ZM96.554 34.5V17.284H101.322V22.148L100.65 20.74C101.162 19.524 101.983 18.6067 103.114 17.988C104.245 17.348 105.621 17.028 107.242 17.028V21.636C107.029 21.6147 106.837 21.604 106.666 21.604C106.495 21.5827 106.314 21.572 106.122 21.572C104.757 21.572 103.647 21.9667 102.794 22.756C101.962 23.524 101.546 24.7293 101.546 26.372V34.5H96.554Z" fill="#202020"/>
<path d="M125.606 34.884C124.048 34.884 122.502 34.6813 120.966 34.276C119.43 33.8493 118.128 33.252 117.062 32.484L119.078 28.516C119.931 29.1347 120.923 29.6253 122.054 29.988C123.184 30.3507 124.326 30.532 125.478 30.532C126.779 30.532 127.803 30.276 128.55 29.764C129.296 29.252 129.67 28.548 129.67 27.652C129.67 26.7987 129.339 26.1267 128.678 25.636C128.016 25.1453 126.95 24.9 125.478 24.9H123.11V21.476L129.35 14.404L129.926 16.26H118.182V12.1H133.862V15.46L127.654 22.532L125.03 21.028H126.534C129.286 21.028 131.366 21.6467 132.774 22.884C134.182 24.1213 134.886 25.7107 134.886 27.652C134.886 28.9107 134.555 30.0947 133.894 31.204C133.232 32.292 132.219 33.1773 130.854 33.86C129.488 34.5427 127.739 34.884 125.606 34.884ZM147.295 34.884C145.247 34.884 143.466 34.4573 141.951 33.604C140.458 32.7507 139.306 31.5027 138.495 29.86C137.685 28.2173 137.279 26.1907 137.279 23.78C137.279 21.1987 137.759 19.012 138.719 17.22C139.701 15.428 141.045 14.0627 142.751 13.124C144.479 12.1853 146.463 11.716 148.703 11.716C149.898 11.716 151.039 11.844 152.127 12.1C153.215 12.356 154.154 12.74 154.943 13.252L153.023 17.06C152.405 16.6333 151.743 16.3453 151.039 16.196C150.335 16.0253 149.599 15.94 148.831 15.94C146.89 15.94 145.354 16.5267 144.223 17.7C143.093 18.8733 142.527 20.612 142.527 22.916C142.527 23.3 142.527 23.7267 142.527 24.196C142.549 24.6653 142.613 25.1347 142.719 25.604L141.279 24.26C141.685 23.428 142.207 22.7347 142.847 22.18C143.487 21.604 144.245 21.1773 145.119 20.9C146.015 20.6013 146.997 20.452 148.063 20.452C149.514 20.452 150.815 20.74 151.967 21.316C153.119 21.892 154.037 22.7027 154.719 23.748C155.423 24.7933 155.775 26.02 155.775 27.428C155.775 28.9427 155.391 30.2653 154.623 31.396C153.877 32.5053 152.863 33.3693 151.583 33.988C150.325 34.5853 148.895 34.884 147.295 34.884ZM147.007 31.012C147.733 31.012 148.373 30.884 148.927 30.628C149.503 30.3507 149.951 29.956 150.271 29.444C150.591 28.932 150.751 28.3453 150.751 27.684C150.751 26.66 150.399 25.8493 149.695 25.252C149.013 24.6333 148.095 24.324 146.943 24.324C146.175 24.324 145.503 24.4733 144.927 24.772C144.351 25.0493 143.893 25.444 143.551 25.956C143.231 26.4467 143.071 27.0227 143.071 27.684C143.071 28.324 143.231 28.9 143.551 29.412C143.871 29.9027 144.319 30.2973 144.895 30.596C145.471 30.8733 146.175 31.012 147.007 31.012ZM167.254 34.884C165.42 34.884 163.777 34.436 162.326 33.54C160.876 32.6227 159.734 31.3 158.902 29.572C158.07 27.844 157.654 25.7533 157.654 23.3C157.654 20.8467 158.07 18.756 158.902 17.028C159.734 15.3 160.876 13.988 162.326 13.092C163.777 12.1747 165.42 11.716 167.254 11.716C169.11 11.716 170.753 12.1747 172.182 13.092C173.633 13.988 174.774 15.3 175.606 17.028C176.438 18.756 176.854 20.8467 176.854 23.3C176.854 25.7533 176.438 27.844 175.606 29.572C174.774 31.3 173.633 32.6227 172.182 33.54C170.753 34.436 169.11 34.884 167.254 34.884ZM167.254 30.5C168.129 30.5 168.886 30.2547 169.526 29.764C170.188 29.2733 170.7 28.4947 171.062 27.428C171.446 26.3613 171.638 24.9853 171.638 23.3C171.638 21.6147 171.446 20.2387 171.062 19.172C170.7 18.1053 170.188 17.3267 169.526 16.836C168.886 16.3453 168.129 16.1 167.254 16.1C166.401 16.1 165.644 16.3453 164.982 16.836C164.342 17.3267 163.83 18.1053 163.446 19.172C163.084 20.2387 162.902 21.6147 162.902 23.3C162.902 24.9853 163.084 26.3613 163.446 27.428C163.83 28.4947 164.342 29.2733 164.982 29.764C165.644 30.2547 166.401 30.5 167.254 30.5Z" fill="#F3811E"/>
</svg>
