<svg xmlns="http://www.w3.org/2000/svg" width="29" height="29" viewBox="0 0 29 29" fill="none"><path d="M2.85229 9.14648L12.4544 15.8145C13.232 16.3545 13.6208 16.6244 14.0437 16.729C14.4172 16.8214 14.8079 16.8214 15.1814 16.729C15.6043 16.6244 15.9931 16.3545 16.7706 15.8145L26.3728 9.14648M8.49721 24.3132H20.7279C22.7038 24.3132 23.6917 24.3132 24.4464 23.9317C25.1103 23.5961 25.65 23.0607 25.9883 22.4021C26.3728 21.6534 26.3728 20.6733 26.3728 18.7132V11.2465C26.3728 9.2863 26.3728 8.30621 25.9883 7.55752C25.65 6.89895 25.1103 6.36352 24.4464 6.02796C23.6917 5.64648 22.7038 5.64648 20.7279 5.64648H8.49721C6.52131 5.64648 5.53335 5.64648 4.77866 6.02796C4.11481 6.36352 3.57508 6.89895 3.23683 7.55752C2.85229 8.30621 2.85229 9.2863 2.85229 11.2465V18.7132C2.85229 20.6733 2.85229 21.6534 3.23683 22.4021C3.57508 23.0607 4.11481 23.5961 4.77866 23.9317C5.53335 24.3132 6.52131 24.3132 8.49721 24.3132Z" stroke="#EED7A4" style="stroke:#EED7A4;stroke:color(display-p3 0.9333 0.8431 0.6431);stroke-opacity:1;" stroke-width="1.8" stroke-linecap="round" stroke-linejoin="round"></path></svg>