<svg xmlns="http://www.w3.org/2000/svg" width="16" height="16" viewBox="0 0 16 16" fill="none"><path d="M7.0572 8.94279C6.5365 8.42209 6.5365 7.57787 7.0572 7.05717C7.5779 6.53647 8.42212 6.53647 8.94282 7.05717C9.46352 7.57787 9.46352 8.42209 8.94282 8.94279M5.17158 10.8284C3.60949 9.26631 3.60949 6.73365 5.17158 5.17155C6.73368 3.60946 9.26634 3.60946 10.8284 5.17155C12.3905 6.73365 12.3905 9.26631 10.8284 10.8284M3.28597 12.714C0.68247 10.1105 0.68247 5.88943 3.28597 3.28593C5.88946 0.682439 10.1106 0.682439 12.7141 3.28593C15.3176 5.88943 15.3176 10.1105 12.7141 12.714" stroke="#EED7A4" style="stroke:#EED7A4;stroke:color(display-p3 0.9333 0.8431 0.6431);stroke-opacity:1;" stroke-linecap="round" stroke-linejoin="round"></path></svg>