<svg xmlns="http://www.w3.org/2000/svg" width="19" height="18" viewBox="0 0 19 18" fill="none"><path d="M8 6V5.25M8 9.375V8.625M8 12.75V12M4.4 3H14.6C15.4401 3 15.8601 3 16.181 3.16349C16.4632 3.3073 16.6927 3.53677 16.8365 3.81901C17 4.13988 17 4.55992 17 5.4V6.375C15.5503 6.375 14.375 7.55025 14.375 9C14.375 10.4497 15.5503 11.625 17 11.625V12.6C17 13.4401 17 13.8601 16.8365 14.181C16.6927 14.4632 16.4632 14.6927 16.181 14.8365C15.8601 15 15.4401 15 14.6 15H4.4C3.55992 15 3.13988 15 2.81901 14.8365C2.53677 14.6927 2.3073 14.4632 2.16349 14.181C2 13.8601 2 13.4401 2 12.6V11.625C3.44975 11.625 4.625 10.4497 4.625 9C4.625 7.55025 3.44975 6.375 2 6.375V5.4C2 4.55992 2 4.13988 2.16349 3.81901C2.3073 3.53677 2.53677 3.3073 2.81901 3.16349C3.13988 3 3.55992 3 4.4 3Z" stroke="white" style="stroke:white;stroke-opacity:1;" stroke-width="1.39685" stroke-linecap="round" stroke-linejoin="round"></path></svg>