<svg xmlns="http://www.w3.org/2000/svg" width="21" height="21" viewBox="0 0 21 21" fill="none"><g clip-path="url(#clip0_0_585)"><path fill-rule="evenodd" clip-rule="evenodd" d="M17.8152 3.88616C15.9436 2.01283 13.4552 0.980326 10.8044 0.979492C5.34191 0.979492 0.896075 5.42449 0.893575 10.8895C0.892742 12.6362 1.34941 14.3412 2.21691 15.8445L0.810242 20.9795L6.06358 19.6012C7.51108 20.3912 9.14108 20.807 10.7994 20.8078H10.8036C16.2652 20.8078 20.7119 16.362 20.7144 10.897C20.7161 8.24949 19.6861 5.75866 17.8152 3.88616ZM10.8044 19.1337H10.8011C9.32274 19.1337 7.87358 18.7362 6.60857 17.9853L6.30774 17.807L3.19024 18.6245L4.02274 15.5845L3.82691 15.2728C3.00191 13.9612 2.56691 12.4453 2.56774 10.8895C2.56941 6.34783 6.26524 2.65283 10.8086 2.65283C13.0086 2.65283 15.0769 3.51116 16.6319 5.06783C18.1869 6.62533 19.0427 8.69449 19.0419 10.8953C19.0394 15.4387 15.3444 19.1337 10.8044 19.1337ZM15.3227 12.9645C15.0752 12.8403 13.8577 12.2412 13.6302 12.1587C13.4036 12.0762 13.2386 12.0345 13.0727 12.282C12.9069 12.5295 12.4336 13.0878 12.2886 13.2537C12.1444 13.4187 11.9994 13.4395 11.7519 13.3153C11.5044 13.1912 10.7061 12.9303 9.76024 12.0862C9.02441 11.4295 8.52691 10.6187 8.38274 10.3703C8.23858 10.122 8.36774 9.98866 8.49108 9.86532C8.60274 9.75449 8.73858 9.57616 8.86274 9.43116C8.98774 9.28783 9.02857 9.18449 9.11191 9.01866C9.19441 8.85366 9.15358 8.70866 9.09108 8.58449C9.02858 8.46116 8.53358 7.24199 8.32774 6.74616C8.12691 6.26283 7.92274 6.32866 7.77024 6.32116C7.62608 6.31366 7.46108 6.31283 7.29524 6.31283C7.13024 6.31283 6.86191 6.37449 6.63524 6.62283C6.40858 6.87116 5.76858 7.47033 5.76858 8.68866C5.76858 9.90783 6.65608 11.0853 6.77941 11.2503C6.90274 11.4153 8.52524 13.917 11.0094 14.9895C11.6002 15.2445 12.0619 15.397 12.4211 15.5112C13.0144 15.6995 13.5544 15.6728 13.9811 15.6095C14.4569 15.5387 15.4461 15.0103 15.6527 14.432C15.8594 13.8537 15.8594 13.357 15.7969 13.2545C15.7352 13.1503 15.5702 13.0887 15.3227 12.9645Z" fill="white" style="fill:white;fill-opacity:1;"></path></g><defs><clipPath id="clip0_0_585"><rect width="20" height="20" fill="white" style="fill:white;fill-opacity:1;" transform="translate(0.762756 0.979492)"></rect></clipPath></defs></svg>